<svg 
 xmlns="http://www.w3.org/2000/svg"
 xmlns:xlink="http://www.w3.org/1999/xlink"
 width="105px" height="105px">
<rect  x="99" y="99" width="102" height="102" fill="white" />
<path fill-rule="evenodd"  stroke="rgb(0, 0, 0)" stroke-width="2px" stroke-linecap="butt" stroke-linejoin="miter" fill="rgb(238, 30, 45)"
 d="M98.046,54.000 C96.925,77.731 77.783,96.736 54.000,97.654 L54.000,102.000 L50.000,102.000 L50.000,97.644 C26.401,96.530 7.468,77.598 6.354,54.000 L2.000,54.000 L2.000,50.000 L6.344,50.000 C7.263,26.217 26.269,7.076 50.000,5.956 L50.000,2.000 L54.000,2.000 L54.000,5.946 C77.916,6.869 97.132,26.084 98.056,50.000 L102.000,50.000 L102.000,54.000 L98.046,54.000 ZM54.000,11.191 L54.000,36.000 L50.000,36.000 L50.000,11.207 C29.166,12.318 12.500,29.114 11.590,50.000 L36.000,50.000 L36.000,54.000 L11.608,54.000 C12.713,74.700 29.299,91.289 50.000,92.393 L50.000,68.000 L54.000,68.000 L54.000,92.409 C74.886,91.498 91.680,74.833 92.792,54.000 L68.000,54.000 L68.000,50.000 L92.810,50.000 C91.893,28.981 75.020,12.108 54.000,11.191 Z"/>
<path fill-rule="evenodd"  stroke="rgb(0, 0, 0)" stroke-width="1px" stroke-linecap="butt" stroke-linejoin="miter" fill="rgb(238, 30, 45)"
 d="M52.000,47.000 C54.761,47.000 57.000,49.239 57.000,52.000 C57.000,54.761 54.761,57.000 52.000,57.000 C49.239,57.000 47.000,54.761 47.000,52.000 C47.000,49.239 49.239,47.000 52.000,47.000 Z"/>
</svg>