<svg 
 xmlns="http://www.w3.org/2000/svg"
 xmlns:xlink="http://www.w3.org/1999/xlink"
 width="37.5px" height="36.5px">
<path fill-rule="evenodd"  stroke="rgb(0, 0, 0)" stroke-width="1px" stroke-linecap="butt" stroke-linejoin="miter" fill="rgb(21, 25, 24)"
 d="M28.183,26.357 C28.547,27.247 28.987,27.910 29.502,28.347 C30.017,28.784 30.596,29.002 31.241,29.002 C31.827,29.002 32.334,28.866 32.761,28.594 C33.188,28.322 33.554,28.022 33.860,27.692 C34.165,27.362 34.416,27.066 34.613,26.802 C34.810,26.538 34.963,26.406 35.072,26.406 C35.155,26.406 35.222,26.439 35.273,26.505 C35.323,26.571 35.365,26.703 35.398,26.901 C35.432,27.098 35.457,27.375 35.474,27.729 C35.490,28.084 35.499,28.557 35.499,29.151 C35.499,29.563 35.492,29.913 35.480,30.201 C35.467,30.490 35.448,30.737 35.423,30.943 C35.398,31.149 35.365,31.326 35.323,31.474 C35.281,31.623 35.214,31.792 35.122,31.981 C35.030,32.171 34.852,32.414 34.588,32.711 C34.324,33.007 34.002,33.292 33.621,33.564 C33.240,33.836 32.805,34.062 32.315,34.243 C31.825,34.425 31.296,34.515 30.726,34.515 C29.613,34.515 28.608,34.177 27.712,33.502 C26.816,32.826 26.054,31.817 25.426,30.473 C24.798,29.130 24.317,27.453 23.982,25.442 C23.647,23.431 23.480,21.091 23.480,18.421 C23.480,15.701 23.664,13.287 24.032,11.177 C24.401,9.067 24.916,7.295 25.577,5.861 C26.238,4.427 27.032,3.340 27.957,2.598 C28.882,1.856 29.901,1.485 31.015,1.485 C31.467,1.485 31.902,1.560 32.321,1.708 C32.740,1.856 33.127,2.050 33.483,2.289 C33.839,2.528 34.159,2.804 34.444,3.117 C34.728,3.430 34.927,3.698 35.040,3.921 C35.153,4.143 35.231,4.329 35.273,4.477 C35.314,4.625 35.348,4.815 35.373,5.045 C35.398,5.276 35.417,5.548 35.430,5.861 C35.442,6.175 35.448,6.562 35.448,7.023 C35.448,7.518 35.440,7.938 35.423,8.284 C35.406,8.630 35.377,8.911 35.335,9.125 C35.293,9.339 35.243,9.496 35.185,9.595 C35.126,9.693 35.059,9.743 34.984,9.743 C34.858,9.743 34.699,9.599 34.507,9.310 C34.314,9.022 34.065,8.701 33.759,8.346 C33.454,7.992 33.089,7.670 32.667,7.382 C32.244,7.094 31.739,6.949 31.153,6.949 C30.508,6.949 29.933,7.209 29.426,7.728 C28.920,8.247 28.489,8.989 28.133,9.953 C27.777,10.917 27.507,12.083 27.323,13.451 C27.138,14.820 27.046,16.361 27.046,18.075 C27.046,19.954 27.145,21.581 27.342,22.957 C27.538,24.334 27.819,25.467 28.183,26.357 ZM21.113,33.897 C20.983,33.980 20.808,34.041 20.586,34.083 C20.364,34.124 20.081,34.145 19.738,34.145 C19.386,34.145 19.098,34.124 18.871,34.083 C18.645,34.041 18.467,33.976 18.338,33.885 C18.208,33.795 18.112,33.671 18.049,33.514 C17.986,33.358 17.934,33.164 17.892,32.933 L16.724,25.689 C16.565,24.668 16.391,23.815 16.203,23.130 C16.014,22.447 15.801,21.890 15.562,21.462 C15.324,21.033 15.055,20.732 14.758,20.559 C14.461,20.386 14.120,20.300 13.735,20.300 L13.094,20.300 L13.094,33.106 C13.094,33.288 13.069,33.440 13.019,33.564 C12.969,33.687 12.883,33.795 12.761,33.885 C12.640,33.976 12.475,34.041 12.265,34.083 C12.056,34.124 11.792,34.145 11.474,34.145 C11.156,34.145 10.892,34.124 10.683,34.083 C10.474,34.041 10.308,33.976 10.187,33.885 C10.065,33.795 9.982,33.687 9.936,33.564 C9.890,33.440 9.867,33.288 9.867,33.106 L9.867,20.300 L9.226,20.300 C8.816,20.300 8.456,20.403 8.146,20.609 C7.836,20.815 7.564,21.136 7.330,21.573 C7.095,22.010 6.890,22.566 6.714,23.242 C6.538,23.918 6.375,24.734 6.224,25.689 L5.069,32.933 C5.027,33.164 4.975,33.358 4.912,33.514 C4.849,33.671 4.751,33.795 4.617,33.885 C4.483,33.976 4.305,34.041 4.083,34.083 C3.861,34.124 3.574,34.145 3.223,34.145 C2.871,34.145 2.586,34.124 2.369,34.083 C2.151,34.041 1.977,33.980 1.848,33.897 C1.718,33.815 1.628,33.712 1.578,33.588 C1.527,33.465 1.502,33.312 1.502,33.131 C1.502,33.049 1.504,32.950 1.508,32.834 C1.513,32.719 1.525,32.583 1.546,32.426 C1.567,32.270 1.594,32.084 1.628,31.870 C1.661,31.656 1.707,31.400 1.766,31.104 L2.896,24.725 C3.105,23.538 3.315,22.537 3.524,21.721 C3.733,20.905 3.955,20.222 4.190,19.669 C4.424,19.117 4.680,18.664 4.956,18.309 C5.232,17.955 5.542,17.646 5.885,17.382 L5.885,17.358 C5.592,17.176 5.322,16.929 5.075,16.616 C4.828,16.303 4.598,15.887 4.385,15.367 C4.171,14.848 3.966,14.202 3.769,13.427 C3.572,12.652 3.378,11.713 3.185,10.608 L2.218,4.872 C2.126,4.345 2.063,3.929 2.030,3.624 C1.996,3.319 1.979,3.060 1.979,2.845 C1.979,2.664 2.002,2.511 2.049,2.388 C2.094,2.264 2.178,2.165 2.300,2.091 C2.421,2.017 2.589,1.959 2.802,1.918 C3.016,1.877 3.290,1.856 3.625,1.856 C3.976,1.856 4.261,1.877 4.479,1.918 C4.696,1.959 4.868,2.025 4.994,2.116 C5.119,2.207 5.209,2.330 5.264,2.487 C5.318,2.643 5.362,2.837 5.396,3.068 L6.425,9.842 C6.568,10.781 6.721,11.572 6.884,12.215 C7.047,12.858 7.237,13.377 7.455,13.773 C7.673,14.168 7.924,14.453 8.209,14.626 C8.493,14.799 8.832,14.885 9.226,14.885 L9.867,14.885 L9.867,2.870 C9.867,2.689 9.890,2.536 9.936,2.412 C9.982,2.289 10.065,2.186 10.187,2.103 C10.308,2.021 10.474,1.959 10.683,1.918 C10.892,1.877 11.156,1.856 11.474,1.856 C11.792,1.856 12.056,1.877 12.265,1.918 C12.475,1.959 12.640,2.021 12.761,2.103 C12.883,2.186 12.969,2.289 13.019,2.412 C13.069,2.536 13.094,2.689 13.094,2.870 L13.094,14.885 L13.735,14.885 C14.112,14.885 14.444,14.791 14.733,14.601 C15.022,14.412 15.277,14.111 15.499,13.699 C15.721,13.287 15.916,12.763 16.083,12.129 C16.251,11.494 16.401,10.724 16.535,9.817 L17.565,3.068 C17.599,2.837 17.643,2.643 17.697,2.487 C17.752,2.330 17.842,2.207 17.967,2.116 C18.093,2.025 18.264,1.959 18.482,1.918 C18.700,1.877 18.984,1.856 19.336,1.856 C19.671,1.856 19.943,1.877 20.152,1.918 C20.362,1.959 20.529,2.017 20.655,2.091 C20.780,2.165 20.866,2.264 20.912,2.388 C20.958,2.511 20.981,2.664 20.981,2.845 C20.981,3.060 20.963,3.323 20.925,3.636 C20.887,3.950 20.826,4.362 20.743,4.872 L19.776,10.509 C19.591,11.564 19.405,12.467 19.217,13.216 C19.028,13.967 18.827,14.597 18.614,15.108 C18.400,15.619 18.168,16.043 17.917,16.381 C17.666,16.719 17.385,17.003 17.076,17.234 L17.076,17.259 C17.427,17.555 17.741,17.889 18.017,18.260 C18.294,18.631 18.549,19.097 18.784,19.657 C19.018,20.217 19.236,20.905 19.437,21.721 C19.638,22.537 19.847,23.538 20.065,24.725 L21.182,31.104 C21.241,31.400 21.287,31.656 21.320,31.870 C21.354,32.084 21.381,32.270 21.402,32.426 C21.423,32.583 21.438,32.719 21.446,32.834 C21.454,32.950 21.459,33.049 21.459,33.131 C21.459,33.312 21.434,33.465 21.383,33.588 C21.333,33.712 21.243,33.815 21.113,33.897 Z"/>
</svg>