<svg 
 xmlns="http://www.w3.org/2000/svg"
 xmlns:xlink="http://www.w3.org/1999/xlink"
 width="102px" height="103px">
<path fill-rule="evenodd"  fill="rgb(247, 223, 30)"
 d="M-0.000,-0.000 L100.000,-0.000 L100.000,-0.000 L100.000,100.000 L100.000,100.000 L-0.000,100.000 L-0.000,100.000 L-0.000,-0.000 L-0.000,-0.000 Z"/>
<path fill-rule="evenodd"  stroke="rgb(0, 0, 0)" stroke-width="1px" stroke-linecap="butt" stroke-linejoin="miter" fill="rgb(21, 25, 24)"
 d="M83.679,83.681 C84.364,85.192 85.189,86.318 86.156,87.059 C87.124,87.801 88.212,88.172 89.424,88.172 C90.524,88.172 91.476,87.941 92.278,87.479 C93.080,87.017 93.768,86.507 94.342,85.947 C94.916,85.388 95.388,84.884 95.758,84.436 C96.127,83.989 96.414,83.765 96.619,83.765 C96.776,83.765 96.902,83.821 96.996,83.932 C97.091,84.045 97.169,84.268 97.232,84.604 C97.295,84.940 97.342,85.409 97.374,86.010 C97.405,86.612 97.421,87.416 97.421,88.423 C97.421,89.123 97.409,89.718 97.385,90.207 C97.362,90.697 97.326,91.117 97.279,91.466 C97.232,91.817 97.169,92.117 97.091,92.369 C97.012,92.621 96.886,92.908 96.713,93.229 C96.540,93.551 96.206,93.964 95.710,94.467 C95.215,94.971 94.609,95.454 93.894,95.915 C93.178,96.377 92.361,96.761 91.441,97.070 C90.521,97.377 89.526,97.531 88.456,97.531 C86.365,97.531 84.477,96.957 82.795,95.810 C81.112,94.663 79.681,92.950 78.501,90.669 C77.322,88.389 76.417,85.542 75.788,82.128 C75.159,78.714 74.845,74.741 74.845,70.208 C74.845,65.591 75.191,61.492 75.883,57.910 C76.575,54.328 77.542,51.320 78.784,48.886 C80.027,46.451 81.517,44.605 83.255,43.346 C84.992,42.086 86.907,41.457 88.999,41.457 C89.848,41.457 90.666,41.583 91.452,41.835 C92.239,42.086 92.966,42.416 93.635,42.821 C94.303,43.227 94.904,43.696 95.439,44.227 C95.974,44.759 96.347,45.213 96.560,45.591 C96.772,45.969 96.917,46.284 96.996,46.535 C97.075,46.787 97.138,47.109 97.185,47.501 C97.232,47.893 97.267,48.355 97.291,48.886 C97.315,49.418 97.326,50.075 97.326,50.859 C97.326,51.698 97.311,52.411 97.279,52.999 C97.248,53.587 97.193,54.063 97.114,54.426 C97.035,54.790 96.941,55.056 96.831,55.224 C96.721,55.391 96.595,55.475 96.454,55.475 C96.218,55.475 95.919,55.231 95.557,54.741 C95.195,54.252 94.727,53.706 94.154,53.104 C93.579,52.503 92.895,51.957 92.101,51.467 C91.307,50.978 90.359,50.733 89.259,50.733 C88.047,50.733 86.966,51.173 86.015,52.055 C85.063,52.936 84.253,54.195 83.585,55.832 C82.916,57.469 82.409,59.449 82.063,61.771 C81.717,64.094 81.544,66.710 81.544,69.620 C81.544,72.810 81.729,75.573 82.099,77.909 C82.468,80.246 82.995,82.170 83.679,83.681 ZM70.400,96.482 C70.156,96.622 69.826,96.727 69.409,96.797 C68.992,96.866 68.461,96.902 67.817,96.902 C67.156,96.902 66.614,96.866 66.189,96.797 C65.764,96.727 65.430,96.615 65.186,96.461 C64.942,96.308 64.762,96.098 64.644,95.831 C64.526,95.566 64.427,95.237 64.349,94.845 L62.155,82.547 C61.856,80.813 61.530,79.365 61.176,78.203 C60.822,77.042 60.421,76.098 59.973,75.370 C59.525,74.643 59.021,74.132 58.463,73.838 C57.905,73.544 57.264,73.397 56.541,73.397 L55.337,73.397 L55.337,95.139 C55.337,95.447 55.290,95.706 55.196,95.915 C55.102,96.125 54.940,96.308 54.712,96.461 C54.484,96.615 54.173,96.727 53.781,96.797 C53.387,96.866 52.892,96.902 52.294,96.902 C51.696,96.902 51.201,96.866 50.808,96.797 C50.415,96.727 50.104,96.615 49.876,96.461 C49.648,96.308 49.491,96.125 49.404,95.915 C49.318,95.706 49.275,95.447 49.275,95.139 L49.275,73.397 L48.072,73.397 C47.301,73.397 46.625,73.573 46.043,73.922 C45.461,74.272 44.950,74.818 44.509,75.559 C44.069,76.301 43.684,77.245 43.354,78.392 C43.023,79.540 42.717,80.925 42.434,82.547 L40.263,94.845 C40.184,95.237 40.086,95.566 39.968,95.831 C39.850,96.098 39.665,96.308 39.414,96.461 C39.162,96.615 38.828,96.727 38.411,96.797 C37.994,96.866 37.456,96.902 36.795,96.902 C36.135,96.902 35.600,96.866 35.191,96.797 C34.782,96.727 34.456,96.622 34.212,96.482 C33.968,96.342 33.799,96.167 33.705,95.957 C33.611,95.747 33.564,95.489 33.564,95.181 C33.564,95.041 33.567,94.873 33.575,94.677 C33.583,94.482 33.607,94.251 33.646,93.985 C33.685,93.719 33.736,93.404 33.799,93.040 C33.862,92.677 33.949,92.243 34.059,91.739 L36.182,80.910 C36.575,78.896 36.968,77.196 37.362,75.811 C37.755,74.426 38.171,73.265 38.612,72.327 C39.052,71.390 39.532,70.621 40.051,70.019 C40.570,69.417 41.152,68.893 41.797,68.445 L41.797,68.403 C41.246,68.095 40.739,67.675 40.275,67.144 C39.811,66.612 39.379,65.905 38.978,65.024 C38.577,64.143 38.191,63.045 37.822,61.729 C37.452,60.414 37.086,58.819 36.725,56.944 L34.908,47.207 C34.735,46.312 34.617,45.605 34.554,45.087 C34.491,44.570 34.460,44.129 34.460,43.765 C34.460,43.458 34.503,43.199 34.590,42.989 C34.676,42.779 34.833,42.611 35.062,42.485 C35.289,42.359 35.604,42.261 36.005,42.191 C36.406,42.122 36.921,42.086 37.550,42.086 C38.211,42.086 38.745,42.122 39.154,42.191 C39.563,42.261 39.886,42.374 40.122,42.527 C40.358,42.681 40.526,42.891 40.629,43.157 C40.731,43.423 40.814,43.751 40.877,44.143 L42.811,55.643 C43.078,57.238 43.365,58.581 43.672,59.673 C43.979,60.764 44.336,61.645 44.745,62.317 C45.154,62.988 45.626,63.471 46.161,63.765 C46.695,64.059 47.332,64.206 48.072,64.206 L49.275,64.206 L49.275,43.807 C49.275,43.500 49.318,43.241 49.404,43.031 C49.491,42.821 49.648,42.646 49.876,42.506 C50.104,42.366 50.415,42.261 50.808,42.191 C51.201,42.122 51.696,42.086 52.294,42.086 C52.892,42.086 53.387,42.122 53.781,42.191 C54.173,42.261 54.484,42.366 54.712,42.506 C54.940,42.646 55.102,42.821 55.196,43.031 C55.290,43.241 55.337,43.500 55.337,43.807 L55.337,64.206 L56.541,64.206 C57.248,64.206 57.873,64.045 58.416,63.723 C58.959,63.402 59.438,62.891 59.855,62.191 C60.272,61.492 60.637,60.603 60.952,59.526 C61.266,58.449 61.549,57.141 61.801,55.601 L63.736,44.143 C63.798,43.751 63.881,43.423 63.983,43.157 C64.085,42.891 64.255,42.681 64.491,42.527 C64.726,42.374 65.049,42.261 65.458,42.191 C65.867,42.122 66.401,42.086 67.062,42.086 C67.691,42.086 68.202,42.122 68.595,42.191 C68.988,42.261 69.303,42.359 69.539,42.485 C69.775,42.611 69.936,42.779 70.022,42.989 C70.109,43.199 70.152,43.458 70.152,43.765 C70.152,44.129 70.117,44.577 70.046,45.108 C69.975,45.640 69.861,46.340 69.704,47.207 L67.888,56.777 C67.541,58.568 67.192,60.100 66.838,61.372 C66.484,62.646 66.106,63.716 65.705,64.583 C65.304,65.451 64.868,66.172 64.396,66.745 C63.924,67.319 63.397,67.801 62.816,68.193 L62.816,68.235 C63.476,68.739 64.066,69.305 64.585,69.935 C65.104,70.564 65.583,71.355 66.024,72.306 C66.464,73.258 66.873,74.426 67.251,75.811 C67.628,77.196 68.021,78.896 68.430,80.910 L70.530,91.739 C70.640,92.243 70.726,92.677 70.789,93.040 C70.852,93.404 70.903,93.719 70.942,93.985 C70.982,94.251 71.009,94.482 71.025,94.677 C71.041,94.873 71.049,95.041 71.049,95.181 C71.049,95.489 71.001,95.747 70.907,95.957 C70.813,96.167 70.644,96.342 70.400,96.482 Z"/>
</svg>