<svg 
 xmlns="http://www.w3.org/2000/svg"
 xmlns:xlink="http://www.w3.org/1999/xlink"
 width="45.5px" height="40.5px">
<path fill-rule="evenodd"  stroke="rgb(0, 0, 0)" stroke-width="1px" stroke-linecap="butt" stroke-linejoin="miter" fill="rgb(21, 25, 24)"
 d="M31.183,28.357 C31.547,29.247 31.987,29.910 32.502,30.347 C33.017,30.784 33.596,31.002 34.241,31.002 C34.827,31.002 35.334,30.866 35.761,30.594 C36.188,30.322 36.554,30.022 36.860,29.692 C37.165,29.362 37.416,29.066 37.613,28.802 C37.810,28.538 37.963,28.406 38.072,28.406 C38.155,28.406 38.222,28.439 38.273,28.505 C38.323,28.571 38.365,28.703 38.398,28.901 C38.432,29.098 38.457,29.375 38.474,29.729 C38.490,30.084 38.499,30.557 38.499,31.151 C38.499,31.563 38.492,31.913 38.480,32.201 C38.467,32.490 38.448,32.737 38.423,32.943 C38.398,33.149 38.365,33.326 38.323,33.474 C38.281,33.623 38.214,33.792 38.122,33.981 C38.030,34.171 37.852,34.414 37.588,34.711 C37.324,35.007 37.002,35.292 36.621,35.564 C36.240,35.836 35.805,36.062 35.315,36.243 C34.825,36.425 34.296,36.515 33.726,36.515 C32.613,36.515 31.608,36.177 30.712,35.502 C29.816,34.826 29.054,33.817 28.426,32.473 C27.798,31.130 27.317,29.453 26.982,27.442 C26.647,25.431 26.480,23.091 26.480,20.421 C26.480,17.701 26.664,15.287 27.032,13.177 C27.401,11.067 27.916,9.295 28.577,7.861 C29.238,6.427 30.032,5.340 30.957,4.598 C31.882,3.856 32.901,3.485 34.015,3.485 C34.467,3.485 34.902,3.560 35.321,3.708 C35.740,3.856 36.127,4.050 36.483,4.289 C36.839,4.528 37.159,4.804 37.444,5.117 C37.728,5.430 37.927,5.698 38.040,5.921 C38.153,6.143 38.231,6.329 38.273,6.477 C38.314,6.625 38.348,6.815 38.373,7.045 C38.398,7.276 38.417,7.548 38.430,7.861 C38.442,8.175 38.448,8.562 38.448,9.023 C38.448,9.518 38.440,9.938 38.423,10.284 C38.406,10.630 38.377,10.911 38.335,11.125 C38.293,11.339 38.243,11.496 38.185,11.595 C38.126,11.693 38.059,11.743 37.984,11.743 C37.858,11.743 37.699,11.599 37.507,11.310 C37.314,11.022 37.065,10.701 36.759,10.346 C36.454,9.992 36.089,9.670 35.667,9.382 C35.244,9.094 34.739,8.949 34.153,8.949 C33.508,8.949 32.933,9.209 32.426,9.728 C31.920,10.247 31.489,10.989 31.133,11.953 C30.777,12.917 30.507,14.083 30.323,15.451 C30.138,16.820 30.046,18.361 30.046,20.075 C30.046,21.954 30.145,23.581 30.342,24.957 C30.538,26.334 30.819,27.467 31.183,28.357 ZM24.113,35.897 C23.983,35.980 23.808,36.041 23.586,36.083 C23.364,36.124 23.081,36.145 22.738,36.145 C22.386,36.145 22.098,36.124 21.871,36.083 C21.645,36.041 21.467,35.976 21.338,35.885 C21.208,35.795 21.112,35.671 21.049,35.514 C20.986,35.358 20.934,35.164 20.892,34.933 L19.724,27.689 C19.565,26.668 19.391,25.815 19.203,25.130 C19.014,24.447 18.801,23.890 18.562,23.462 C18.324,23.033 18.055,22.732 17.758,22.559 C17.461,22.386 17.120,22.300 16.735,22.300 L16.094,22.300 L16.094,35.106 C16.094,35.288 16.069,35.440 16.019,35.564 C15.969,35.687 15.883,35.795 15.761,35.885 C15.640,35.976 15.475,36.041 15.265,36.083 C15.056,36.124 14.792,36.145 14.474,36.145 C14.156,36.145 13.892,36.124 13.683,36.083 C13.474,36.041 13.308,35.976 13.187,35.885 C13.065,35.795 12.982,35.687 12.936,35.564 C12.890,35.440 12.867,35.288 12.867,35.106 L12.867,22.300 L12.226,22.300 C11.816,22.300 11.456,22.403 11.146,22.609 C10.836,22.815 10.564,23.136 10.330,23.573 C10.095,24.010 9.890,24.566 9.714,25.242 C9.538,25.918 9.375,26.734 9.224,27.689 L8.069,34.933 C8.027,35.164 7.975,35.358 7.912,35.514 C7.849,35.671 7.751,35.795 7.617,35.885 C7.483,35.976 7.305,36.041 7.083,36.083 C6.861,36.124 6.574,36.145 6.223,36.145 C5.871,36.145 5.586,36.124 5.369,36.083 C5.151,36.041 4.977,35.980 4.848,35.897 C4.718,35.815 4.628,35.712 4.578,35.588 C4.527,35.465 4.502,35.312 4.502,35.131 C4.502,35.049 4.504,34.950 4.508,34.834 C4.513,34.719 4.525,34.583 4.546,34.426 C4.567,34.270 4.594,34.084 4.628,33.870 C4.661,33.656 4.707,33.400 4.766,33.104 L5.896,26.725 C6.105,25.538 6.315,24.537 6.524,23.721 C6.733,22.905 6.955,22.222 7.190,21.669 C7.424,21.117 7.680,20.664 7.956,20.309 C8.232,19.955 8.542,19.646 8.885,19.382 L8.885,19.358 C8.592,19.176 8.322,18.929 8.075,18.616 C7.828,18.303 7.598,17.887 7.385,17.367 C7.171,16.848 6.966,16.202 6.769,15.427 C6.572,14.652 6.378,13.713 6.185,12.608 L5.218,6.872 C5.126,6.345 5.063,5.929 5.030,5.624 C4.996,5.319 4.979,5.060 4.979,4.845 C4.979,4.664 5.002,4.511 5.049,4.388 C5.094,4.264 5.178,4.165 5.300,4.091 C5.421,4.017 5.589,3.959 5.802,3.918 C6.016,3.877 6.290,3.856 6.625,3.856 C6.976,3.856 7.261,3.877 7.479,3.918 C7.696,3.959 7.868,4.025 7.994,4.116 C8.119,4.207 8.209,4.330 8.264,4.487 C8.318,4.643 8.362,4.837 8.396,5.068 L9.425,11.842 C9.568,12.781 9.721,13.572 9.884,14.215 C10.047,14.858 10.237,15.377 10.455,15.773 C10.673,16.168 10.924,16.453 11.209,16.626 C11.493,16.799 11.832,16.885 12.226,16.885 L12.867,16.885 L12.867,4.870 C12.867,4.689 12.890,4.536 12.936,4.412 C12.982,4.289 13.065,4.186 13.187,4.103 C13.308,4.021 13.474,3.959 13.683,3.918 C13.892,3.877 14.156,3.856 14.474,3.856 C14.792,3.856 15.056,3.877 15.265,3.918 C15.475,3.959 15.640,4.021 15.761,4.103 C15.883,4.186 15.969,4.289 16.019,4.412 C16.069,4.536 16.094,4.689 16.094,4.870 L16.094,16.885 L16.735,16.885 C17.112,16.885 17.444,16.791 17.733,16.601 C18.022,16.412 18.277,16.111 18.499,15.699 C18.721,15.287 18.916,14.763 19.083,14.129 C19.251,13.494 19.401,12.724 19.535,11.817 L20.565,5.068 C20.599,4.837 20.643,4.643 20.697,4.487 C20.752,4.330 20.842,4.207 20.967,4.116 C21.093,4.025 21.264,3.959 21.482,3.918 C21.700,3.877 21.984,3.856 22.336,3.856 C22.671,3.856 22.943,3.877 23.152,3.918 C23.362,3.959 23.529,4.017 23.655,4.091 C23.780,4.165 23.866,4.264 23.912,4.388 C23.958,4.511 23.981,4.664 23.981,4.845 C23.981,5.060 23.963,5.323 23.925,5.636 C23.887,5.950 23.826,6.362 23.743,6.872 L22.776,12.509 C22.591,13.564 22.405,14.467 22.217,15.216 C22.028,15.967 21.827,16.597 21.614,17.108 C21.400,17.619 21.168,18.043 20.917,18.381 C20.666,18.719 20.385,19.003 20.076,19.234 L20.076,19.259 C20.427,19.555 20.741,19.889 21.017,20.260 C21.294,20.631 21.549,21.097 21.784,21.657 C22.018,22.217 22.236,22.905 22.437,23.721 C22.638,24.537 22.847,25.538 23.065,26.725 L24.182,33.104 C24.241,33.400 24.287,33.656 24.320,33.870 C24.354,34.084 24.381,34.270 24.402,34.426 C24.423,34.583 24.438,34.719 24.446,34.834 C24.454,34.950 24.459,35.049 24.459,35.131 C24.459,35.312 24.434,35.465 24.383,35.588 C24.333,35.712 24.243,35.815 24.113,35.897 Z"/>
<path fill-rule="evenodd"  stroke="rgb(0, 0, 0)" stroke-width="1px" stroke-linecap="butt" stroke-linejoin="miter" fill="rgb(245, 83, 12)"
 d="M43.422,36.422 C43.402,36.811 43.372,37.133 43.333,37.389 C43.293,37.645 43.243,37.829 43.184,37.943 C43.124,38.057 43.055,38.114 42.976,38.114 L35.916,38.114 C35.654,38.114 35.434,37.929 35.255,37.559 C35.077,37.190 34.987,36.588 34.987,35.754 L34.987,2.351 C34.987,2.162 35.013,1.991 35.065,1.840 C35.116,1.688 35.202,1.565 35.321,1.470 C35.440,1.375 35.600,1.299 35.803,1.243 C36.005,1.186 36.257,1.157 36.559,1.157 C36.868,1.157 37.122,1.186 37.321,1.243 C37.519,1.299 37.678,1.375 37.797,1.470 C37.916,1.565 38.001,1.688 38.053,1.840 C38.104,1.991 38.130,2.162 38.130,2.351 L38.130,31.945 L42.976,31.945 C43.055,31.945 43.124,31.997 43.184,32.101 C43.243,32.205 43.293,32.376 43.333,32.613 C43.372,32.850 43.402,33.163 43.422,33.551 C43.442,33.940 43.452,34.418 43.452,34.987 C43.452,35.555 43.442,36.034 43.422,36.422 ZM32.048,37.389 C32.008,37.645 31.959,37.829 31.899,37.943 C31.840,38.057 31.770,38.114 31.691,38.114 L24.631,38.114 C24.369,38.114 24.149,37.929 23.970,37.559 C23.792,37.190 23.703,36.588 23.703,35.754 L23.703,2.351 C23.703,2.162 23.728,1.991 23.780,1.840 C23.831,1.688 23.917,1.565 24.036,1.470 C24.155,1.375 24.316,1.299 24.518,1.243 C24.720,1.186 24.972,1.157 25.274,1.157 C25.584,1.157 25.837,1.186 26.036,1.243 C26.234,1.299 26.393,1.375 26.512,1.470 C26.631,1.565 26.716,1.688 26.768,1.840 C26.820,1.991 26.845,2.162 26.845,2.351 L26.845,31.945 L31.691,31.945 C31.770,31.945 31.840,31.997 31.899,32.101 C31.959,32.205 32.008,32.376 32.048,32.613 C32.087,32.850 32.117,33.163 32.137,33.551 C32.157,33.940 32.167,34.418 32.167,34.987 C32.167,35.555 32.157,36.034 32.137,36.422 C32.117,36.811 32.087,37.133 32.048,37.389 ZM19.037,37.971 C18.918,38.067 18.759,38.142 18.561,38.199 C18.362,38.256 18.108,38.284 17.799,38.284 C17.497,38.284 17.245,38.256 17.043,38.199 C16.840,38.142 16.680,38.067 16.561,37.971 C16.442,37.877 16.356,37.754 16.305,37.602 C16.253,37.450 16.227,37.280 16.227,37.090 L16.227,2.351 C16.227,2.162 16.253,1.991 16.305,1.840 C16.356,1.688 16.443,1.565 16.567,1.470 C16.690,1.375 16.850,1.299 17.049,1.243 C17.247,1.186 17.497,1.157 17.799,1.157 C18.108,1.157 18.362,1.186 18.561,1.243 C18.759,1.299 18.918,1.375 19.037,1.470 C19.156,1.565 19.241,1.688 19.293,1.840 C19.344,1.991 19.370,2.162 19.370,2.351 L19.370,37.090 C19.370,37.280 19.344,37.450 19.293,37.602 C19.241,37.754 19.156,37.877 19.037,37.971 ZM12.853,37.957 C12.730,38.062 12.562,38.142 12.347,38.199 C12.133,38.256 11.863,38.284 11.538,38.284 C11.022,38.284 10.651,38.237 10.425,38.142 C10.198,38.047 10.036,37.905 9.937,37.716 C9.837,37.526 9.760,37.299 9.704,37.033 L5.050,19.579 L5.050,37.033 C5.050,37.242 5.026,37.422 4.978,37.573 C4.931,37.725 4.847,37.853 4.728,37.957 C4.609,38.062 4.450,38.142 4.252,38.199 C4.053,38.256 3.800,38.284 3.490,38.284 C3.188,38.284 2.936,38.256 2.734,38.199 C2.532,38.142 2.371,38.062 2.252,37.957 C2.133,37.853 2.048,37.725 1.996,37.573 C1.944,37.422 1.919,37.242 1.919,37.033 L1.919,2.380 C1.919,2.171 1.944,1.991 1.996,1.840 C2.048,1.688 2.133,1.565 2.252,1.470 C2.371,1.375 2.532,1.299 2.734,1.243 C2.936,1.186 3.188,1.157 3.490,1.157 C3.800,1.157 4.053,1.186 4.252,1.243 C4.450,1.299 4.609,1.375 4.728,1.470 C4.847,1.565 4.931,1.688 4.978,1.840 C5.026,1.991 5.050,2.171 5.050,2.380 L5.050,18.043 L9.562,2.408 C9.617,2.162 9.684,1.958 9.764,1.797 C9.843,1.636 9.946,1.508 10.073,1.413 C10.200,1.319 10.363,1.252 10.562,1.214 C10.760,1.176 11.014,1.157 11.323,1.157 C11.641,1.157 11.903,1.186 12.109,1.243 C12.315,1.299 12.480,1.380 12.603,1.484 C12.726,1.589 12.812,1.717 12.859,1.868 C12.907,2.020 12.931,2.190 12.931,2.380 C12.931,2.702 12.895,3.034 12.823,3.375 C12.752,3.716 12.617,4.256 12.419,4.995 L8.192,18.214 L12.800,34.844 C12.974,35.622 13.079,36.138 13.115,36.394 C13.151,36.650 13.169,36.853 13.169,37.005 C13.169,37.214 13.147,37.398 13.103,37.559 C13.059,37.721 12.976,37.853 12.853,37.957 Z"/>
</svg>